<svg xmlns="http://www.w3.org/2000/svg" xmlns:xlink="http://www.w3.org/1999/xlink" width="500" height="300" viewBox="150 150 375 375"><clipPath id="a"><path transform="scale(.24)" d="M0 0h1562.5v1562.5H0z" /></clipPath><g clip-path="url(#a)"><path d="M0 0h375v375H0z" fill="transparent"/></g><clipPath id="b"><path transform="scale(.24)" d="M0 0h1562.5v1562.5H0z" /></clipPath><g clip-path="url(#b)"><path d="M0 0h375v375H0z" fill="none"/></g><clipPath id="c"><path transform="scale(.24)" d="M0 0h1562.5v1562.5H0z" fill-rule="evenodd"/></clipPath><g clip-path="url(#c)"><symbol id="d"><path d="M.075.023C.025.053 0 .105 0 .18V.2c.005.085.04.18.102.284A1.165 1.165 0 0 0 .33.76c.02.015.038.026.055.035.015.007.03.01.042.01h.002A.062.062 0 0 0 .474.787.06.06 0 0 0 .49.74.165.165 0 0 0 .48.695 1.197 1.197 0 0 0 .41.528C.396.496.384.478.376.474.365.467.361.472.365.488a.528.528 0 0 0 .03.086C.429.65.443.698.439.718.435.738.412.732.372.698A.626.626 0 0 1 .266.582 1.344 1.344 0 0 1 .174.449.838.838 0 0 1 .109.317.39.39 0 0 1 .084.195C.082.157.088.13.101.112.118.091.15.086.195.097c.045.01.107.04.187.086.028.016.052.03.073.04.022.01.033.015.034.013.002 0 .003-.002.003-.005C.492.224.486.213.475.197A.597.597 0 0 0 .326.061.404.404 0 0 0 .23.018.273.273 0 0 0 .147 0H.143A.1.1 0 0 0 .11.007a.375.375 0 0 0-.036.016z"/></symbol><use xlink:href="#d" transform="scale(69.4125 -69.4125) rotate(11.311 16.35 4.433)" fill="#cb750f" fill-opacity=".302"/><use xlink:href="#d" transform="scale(69.4125 -69.4125) rotate(11.311 16.244 4.56)" fill="#cb750f" fill-opacity=".502"/><use xlink:href="#d" transform="scale(69.4125 -69.4125) rotate(11.311 16.139 4.687)" fill="#ddb78a"/><symbol id="e"><path d="M.019.016a3.135 3.135 0 0 1-.012.062A.384.384 0 0 0 0 .14a1.26 1.26 0 0 0 .016.242l.008.047c.003.015.008.03.017.043a.011.011 0 0 0 .013.004A.031.031 0 0 0 .07.47L.078.458a.124.124 0 0 0 0-.04.449.449 0 0 0-.007-.041.655.655 0 0 1-.016-.143A1.323 1.323 0 0 1 .053.132l.003.016a1.822 1.822 0 0 0 .018.09.797.797 0 0 0 .02.073.362.362 0 0 0 .057.104.283.283 0 0 0 .09.076h.003C.245.49.246.488.245.487A.284.284 0 0 1 .181.423a.43.43 0 0 1-.045-.08.668.668 0 0 1-.049-.175A6.97 6.97 0 0 0 .062.024.041.041 0 0 0 .045.002a.013.013 0 0 0-.01-.001.022.022 0 0 0-.011.006.018.018 0 0 0-.005.009z"/></symbol><symbol id="f"><path d="M.048.009A.073.073 0 0 0 .02.032a.101.101 0 0 0-.015.034A.183.183 0 0 0 0 .103.344.344 0 0 0 .025.24a.83.83 0 0 0 .091.164.193.193 0 0 0 .112.07.145.145 0 0 0 .049.002A.104.104 0 0 0 .322.46.121.121 0 0 0 .361.426.088.088 0 0 0 .38.37V.36C.376.356.371.354.365.356.36.356.356.36.353.363a.817.817 0 0 0-.019.033.094.094 0 0 1-.022.028.058.058 0 0 1-.035.013.09.09 0 0 1-.053-.012.201.201 0 0 1-.043-.03.28.28 0 0 1-.055-.07A1.062 1.062 0 0 1 .068.196a.304.304 0 0 1-.015-.1A.06.06 0 0 1 .06.07.032.032 0 0 1 .077.054c.01-.003.018 0 .027.005.01.007.018.016.027.028a.716.716 0 0 1 .073.135.408.408 0 0 0 .036.056c.006.007.013.01.02.01A.05.05 0 0 0 .3.267.078.078 0 0 0 .315.23.397.397 0 0 0 .318.19.824.824 0 0 1 .326.11.092.092 0 0 1 .332.087C.335.081.34.078.344.078c.004 0 .01.004.017.01a.257.257 0 0 1 .043.055.63.63 0 0 1 .067.12c0 .001.002.002.004 0C.477.264.478.263.477.26a4.73 4.73 0 0 1-.03-.078A.615.615 0 0 0 .39.086.115.115 0 0 0 .36.056.042.042 0 0 0 .324.052C.312.056.301.067.29.085a.103.103 0 0 0-.016.04.842.842 0 0 0-.01.092.215.215 0 0 0-.021-.043 3.422 3.422 0 0 1-.05-.08.597.597 0 0 0-.05-.063.145.145 0 0 0-.028-.02A.08.08 0 0 0 .082 0a.067.067 0 0 0-.034.008z"/></symbol><symbol id="g"><path d="M.128.276A.118.118 0 0 0 .172.26.104.104 0 0 0 .208.224.118.118 0 0 0 .224.18.193.193 0 0 0 .208.074.144.144 0 0 0 .178.03a.092.092 0 0 0-.04-.025.079.079 0 0 0-.046-.001.081.081 0 0 0-.033.02.142.142 0 0 0-.024.036.267.267 0 0 0-.025.082A.575.575 0 0 0 0 .258c0 .04.004.08.009.119l.016.116a2.232 2.232 0 0 0 .156.54.767.767 0 0 0 .102.162c.01.011.021.02.032.027.012.007.023.01.035.009.012 0 .024-.007.035-.02a.092.092 0 0 0 .02-.042.185.185 0 0 0 .004-.053A.627.627 0 0 0 .376.96 1.138 1.138 0 0 0 .297.763 1.398 1.398 0 0 0 .187.58 1.696 1.696 0 0 0 .052.415 1.794 1.794 0 0 1 .041.25a.113.113 0 0 0 .05.025l.084.05c.027.016.054.033.08.052.027.019.051.04.074.063C.33.442.333.443.337.44A.017.017 0 0 0 .346.436C.348.434.348.431.346.429A.499.499 0 0 0 .279.37.973.973 0 0 0 .205.321 5.934 5.934 0 0 0 .128.276M.104.675A3.33 3.33 0 0 1 .057.448C.11.51.157.573.201.64a1.242 1.242 0 0 1 .153.322.66.66 0 0 1 .028.167l-.003.033a.086.086 0 0 1-.007.028.026.026 0 0 1-.018.015c-.007.002-.016 0-.027-.006a.078.078 0 0 1-.025-.024.278.278 0 0 1-.02-.033 1.42 1.42 0 0 1-.11-.244A2.781 2.781 0 0 1 .103.675M.125.037a.086.086 0 0 1 .043.026C.18.074.187.087.192.104A.155.155 0 0 1 .2.152a.166.166 0 0 1-.005.046A.093.093 0 0 1 .18.23a.075.075 0 0 1-.037.028.082.082 0 0 1-.041.003A1.606 1.606 0 0 1 .04.22V.2L.045.154A.333.333 0 0 1 .052.108a.118.118 0 0 1 .016-.04A.102.102 0 0 1 .101.04.034.034 0 0 1 .125.037z"/></symbol><symbol id="h"><path d="m.02 1.325-.01.003a.022.022 0 0 0-.008.007C0 1.338 0 1.341.003 1.343c.011.01.024.018.038.025a.944.944 0 0 0 .136.043 7.233 7.233 0 0 0 .159.044 8.911 8.911 0 0 0 .012.073c.014.085.032.17.051.254.02.084.041.168.063.25.001.005.004.007.01.007.004 0 .01-.002.013-.006.005-.003.007-.007.005-.011a5.491 5.491 0 0 1-.104-.554 3.886 3.886 0 0 0 .27.059.783.783 0 0 0 .067.01.298.298 0 0 0 .066.002.021.021 0 0 0 .01-.004.022.022 0 0 0 .01-.008c.001-.003 0-.006-.005-.009a.267.267 0 0 0-.06-.02.807.807 0 0 0-.064-.012 5.741 5.741 0 0 1-.284-.06L.38 1.423A6.08 6.08 0 0 1 .335.989 5.186 5.186 0 0 1 .324.742 2.267 2.267 0 0 1 .359.25C.374.167.39.087.41.007.412.003.411.001.408.001.406 0 .403 0 .4.002.396.003.394.005.393.007c-.019.04-.035.08-.05.12A.866.866 0 0 0 .31.25a1.838 1.838 0 0 0-.032.238C.272.574.27.66.272.744a5.563 5.563 0 0 0 .057.665 3.126 3.126 0 0 1-.245-.074.3.3 0 0 0-.064-.01z"/></symbol><symbol id="i"><path d="M.346.08A.226.226 0 0 0 .305.035a.16.16 0 0 0-.05-.029A.094.094 0 0 0 .2.004a.102.102 0 0 0-.052.033.117.117 0 0 0-.026.045.186.186 0 0 0-.008.053c0 .018.003.036.006.055a.74.74 0 0 0 .024.105 1.278 1.278 0 0 0 .102.273A1.063 1.063 0 0 0 .395.78C.39.816.385.852.377.887a.6.6 0 0 1-.05.146.04.04 0 0 1-.014.015c-.006.003-.011.001-.018-.004a.058.058 0 0 1-.014-.017A.365.365 0 0 1 .26.985 3.757 3.757 0 0 1 .232.933.44.44 0 0 0 .178.85.2.2 0 0 0 .15.823a.129.129 0 0 0-.034-.02A.076.076 0 0 0 .079.8a.077.077 0 0 0-.037.018.098.098 0 0 0-.028.038.158.158 0 0 0-.012.049.285.285 0 0 0 .008.104.366.366 0 0 0 .013.044.012.012 0 0 0 .01.008c.006.001.01 0 .016-.002a.03.03 0 0 0 .014-.01.013.013 0 0 0 .003-.014.345.345 0 0 1-.013-.067A.477.477 0 0 1 .05.92c0-.016 0-.03.003-.044a.057.057 0 0 1 .015-.03C.074.838.084.836.097.84c.009.002.018.008.027.017l.024.03a.715.715 0 0 1 .068.123c.005.01.01.022.017.032.007.011.014.021.022.03a.062.062 0 0 0 .027.016.051.051 0 0 0 .037-.002.086.086 0 0 0 .03-.023.162.162 0 0 0 .021-.03A.458.458 0 0 0 .411.93C.421.895.43.858.435.82a1 1 0 0 0 .193.146h.004V.963A.996.996 0 0 1 .438.8 18982.974 18982.974 0 0 0 .447.72 1.59 1.59 0 0 0 .443.36 1.017 1.017 0 0 0 .425.261a.594.594 0 0 0-.03-.095.431.431 0 0 0-.05-.088M.224.036a.06.06 0 0 1 .025.01.313.313 0 0 1 .04.037.36.36 0 0 1 .054.085.55.55 0 0 1 .033.096.91.91 0 0 1 .02.1A1.459 1.459 0 0 1 .4.718a1.355 1.355 0 0 1-.003.036 1.048 1.048 0 0 1-.15-.242.917.917 0 0 1-.088-.33A.37.37 0 0 1 .166.09a.119.119 0 0 1 .01-.028.057.057 0 0 1 .018-.02.042.042 0 0 1 .03-.007z"/></symbol><use xlink:href="#e" transform="matrix(40.8225 0 0 -40.8225 115.261 200.085)" fill="#ebcfae"/><use xlink:href="#f" transform="matrix(40.8225 0 0 -40.8225 126.088 200.37)" fill="#ebcfae"/><use xlink:href="#g" transform="matrix(40.8225 0 0 -40.8225 148.92 207.52)" fill="#ebcfae"/><use xlink:href="#h" transform="matrix(40.8225 0 0 -40.8225 158.863 226.363)" fill="#ebcfae"/><use xlink:href="#i" transform="matrix(40.8225 0 0 -40.8225 180.18 229.06)" fill="#ebcfae"/><symbol id="j"><path d="M.105.01A.158.158 0 0 0 .031.06.106.106 0 0 0 0 .128C0 .14.002.145.006.145S.02.138.038.126C.056.113.086.106.13.104a.388.388 0 0 1 .121.01.547.547 0 0 1 .214.11C.495.25.512.27.518.28.523.293.519.304.507.313a.07.07 0 0 1-.038.014A1.169 1.169 0 0 1 .363.33a.903.903 0 0 0-.146.008.113.113 0 0 0-.064.036.079.079 0 0 0-.021.05c0 .018.007.041.021.07.01.02.025.04.044.064a.78.78 0 0 0 .208.166.286.286 0 0 0 .13.043C.557.767.573.762.583.753.593.743.595.73.59.715A.083.083 0 0 0 .566.684.76.76 0 0 0 .442.588C.415.572.397.566.39.568.379.573.377.58.385.59c.007.01.024.024.05.04.03.019.054.036.07.052.016.016.019.024.008.024A.076.076 0 0 1 .487.7.62.62 0 0 1 .376.635.792.792 0 0 1 .298.57.403.403 0 0 1 .21.466C.196.438.199.419.218.408A1.283 1.283 0 0 1 .356.4.826.826 0 0 0 .5.391.132.132 0 0 0 .569.355.078.078 0 0 0 .594.3.105.105 0 0 0 .588.266.285.285 0 0 0 .502.147.562.562 0 0 0 .3.021.39.39 0 0 0 .179 0a.25.25 0 0 0-.074.01z"/></symbol><symbol id="k"><path d="M.472.837A.105.105 0 0 0 .525.802a.155.155 0 0 0 .03-.064.29.29 0 0 0 .005-.06A.556.556 0 0 0 .546.56 1.068 1.068 0 0 0 .317.12.425.425 0 0 0 .184.016.162.162 0 0 0 .12 0a.103.103 0 0 0-.05.013.116.116 0 0 0-.05.054.31.31 0 0 0-.018.104v.018a.699.699 0 0 0 .03.182.917.917 0 0 0 .22.363.495.495 0 0 0 .1.08C.38.832.41.841.435.842h.002A.134.134 0 0 0 .472.837M.118.402a.47.47 0 0 1-.04-.278.073.073 0 0 1 .018-.032.035.035 0 0 1 .027-.013L.128.08a.15.15 0 0 1 .05.023C.212.123.25.16.293.219c.041.057.08.121.113.193a.771.771 0 0 1 .06.165.426.426 0 0 1 .011.126.09.09 0 0 1-.014.04.037.037 0 0 1-.03.015C.41.758.38.742.342.709A.875.875 0 0 1 .171.497 1.254 1.254 0 0 1 .118.402z"/></symbol><symbol id="l"><path d="M.337.04c.001.053.013.12.035.2.023.08.054.168.094.262a2.103 2.103 0 0 1 .05.128C.519.635.509.627.489.604A2.425 2.425 0 0 1 .413.52a1.337 1.337 0 0 0-.23-.235C.127.247.078.24.038.265.013.28 0 .312 0 .36c0 .02.002.04.006.065a1.165 1.165 0 0 0 .139.37A.933.933 0 0 0 .22.92c.012.016.02.023.025.023h.002C.251.941.249.932.243.915A2.438 2.438 0 0 1 .13.622 1.188 1.188 0 0 1 .086.436C.078.383.08.354.094.348.107.34.14.365.195.418a5.205 5.205 0 0 1 .33.37l.062.068a.643.643 0 0 0 .067.067C.667.932.68.937.69.937.705.938.715.933.72.923V.915A.179.179 0 0 0 .706.859 1.069 1.069 0 0 0 .68.796 6.333 6.333 0 0 1 .486.36a2.843 2.843 0 0 1-.074-.2A4.067 4.067 0 0 0 .368.048C.355.016.348 0 .345 0 .342 0 .34.003.338.01a.14.14 0 0 0-.001.03z"/></symbol><symbol id="m"><path d="M.016.03.02.08l.016.071.016.063a.311.311 0 0 1 .007.03C.06.246.057.248.052.25a.077.077 0 0 1-.019.002C.011.251 0 .256 0 .267l.001.005C.006.287.025.307.06.334a.416.416 0 0 1 .052.048 30.73 30.73 0 0 1 .143.292l.027.055A.325.325 0 0 0 .314.78C.321.79.327.793.333.793A.037.037 0 0 0 .35.789C.355.787.358.785.36.781A.231.231 0 0 0 .344.732 2.073 2.073 0 0 0 .303.631 1.982 1.982 0 0 1 .249.497C.243.48.243.47.251.47l.013.006a1.412 1.412 0 0 1 .093.072 6.184 6.184 0 0 1 .157.134l.06.054a2.217 2.217 0 0 0 .104.092.019.019 0 0 0 .01-.004.035.035 0 0 0 .01-.01.016.016 0 0 0 .004-.011.044.044 0 0 0-.01-.025 1.289 1.289 0 0 0-.083-.1A2.04 2.04 0 0 0 .282.392 19.036 19.036 0 0 0 .204.334L.282.328A.903.903 0 0 0 .404.311C.443.302.466.294.474.285.478.281.475.28.467.278a.598.598 0 0 0-.049.004 1.026 1.026 0 0 1-.206.006C.184.287.168.284.164.28A2.648 2.648 0 0 1 .098.145a1.884 1.884 0 0 0-.07-.138C.024.002.021 0 .02 0S.018 0 .018.002a.099.099 0 0 0-.002.027z"/></symbol><use xlink:href="#j" transform="matrix(45.4125 0 0 -45.4125 200.876 200.922)" fill="#cb750f" fill-opacity=".302"/><use xlink:href="#k" transform="matrix(45.4125 0 0 -45.4125 229.76 201.587)" fill="#cb750f" fill-opacity=".302"/><use xlink:href="#l" transform="matrix(45.4125 0 0 -45.4125 254.269 208.771)" fill="#cb750f" fill-opacity=".302"/><use xlink:href="#m" transform="matrix(45.4125 0 0 -45.4125 281.674 202.784)" fill="#cb750f" fill-opacity=".302"/><use xlink:href="#j" transform="matrix(45.4125 0 0 -45.4125 202.1 200.096)" fill="#cb750f" fill-opacity=".502"/><use xlink:href="#k" transform="matrix(45.4125 0 0 -45.4125 230.984 200.762)" fill="#cb750f" fill-opacity=".502"/><use xlink:href="#l" transform="matrix(45.4125 0 0 -45.4125 255.492 207.946)" fill="#cb750f" fill-opacity=".502"/><use xlink:href="#m" transform="matrix(45.4125 0 0 -45.4125 282.898 201.959)" fill="#cb750f" fill-opacity=".502"/><use xlink:href="#j" transform="matrix(45.4125 0 0 -45.4125 203.323 199.271)" fill="#ddb78a"/><use xlink:href="#k" transform="matrix(45.4125 0 0 -45.4125 232.207 199.936)" fill="#ddb78a"/><use xlink:href="#l" transform="matrix(45.4125 0 0 -45.4125 256.716 207.12)" fill="#ddb78a"/><use xlink:href="#m" transform="matrix(45.4125 0 0 -45.4125 284.122 201.134)" fill="#ddb78a"/></g></svg>