<svg xmlns="http://www.w3.org/2000/svg" xmlns:xlink="http://www.w3.org/1999/xlink" width="500" height="500" viewBox="0 0 375 375"><clipPath id="a"><path transform="scale(.24)" d="M0 0h1562.5v1562.5H0z" fill-rule="evenodd"/></clipPath><g clip-path="url(#a)"><path d="M0 0h375v375H0z" fill="#fff"/></g><clipPath id="b"><path transform="scale(.24)" d="M0 0h1562.5v1562.5H0z" fill-rule="evenodd"/></clipPath><g clip-path="url(#b)"><path d="M0 0h375v375H0z" fill="#fff"/></g><clipPath id="c"><path transform="scale(.24)" d="M0 0h1562.5v1562.5H0z" fill-rule="evenodd"/></clipPath><g clip-path="url(#c)"><symbol id="d"><path d="M.075.023C.025.053 0 .105 0 .18V.2c.005.085.04.18.102.284A1.165 1.165 0 0 0 .33.76c.02.015.038.026.055.035.015.007.03.01.042.01h.002A.062.062 0 0 0 .474.787.06.06 0 0 0 .49.74.165.165 0 0 0 .48.695 1.197 1.197 0 0 0 .41.528C.396.496.384.478.376.474.365.467.361.472.365.488a.528.528 0 0 0 .03.086C.429.65.443.698.439.718.435.738.412.732.372.698A.626.626 0 0 1 .266.582 1.344 1.344 0 0 1 .174.449.838.838 0 0 1 .109.317.39.39 0 0 1 .084.195C.082.157.088.13.101.112.118.091.15.086.195.097c.045.01.107.04.187.086.028.016.052.03.073.04.022.01.033.015.034.013.002 0 .003-.002.003-.005C.492.224.486.213.475.197A.597.597 0 0 0 .326.061.404.404 0 0 0 .23.018.273.273 0 0 0 .147 0H.143A.1.1 0 0 0 .11.007a.375.375 0 0 0-.036.016z"/></symbol><use xlink:href="#d" transform="scale(69.4125 -69.4125) rotate(11.311 12.917 10.989)" fill="#cb750f" fill-opacity=".302"/><use xlink:href="#d" transform="scale(69.4125 -69.4125) rotate(11.311 12.812 11.116)" fill="#cb750f" fill-opacity=".502"/><use xlink:href="#d" transform="scale(69.4125 -69.4125) rotate(11.311 12.707 11.243)" fill="#ddb78a"/><symbol id="e"><path d="M.105.01A.158.158 0 0 0 .031.06.106.106 0 0 0 0 .128C0 .14.002.145.006.145S.02.138.038.126C.056.113.086.106.13.104a.388.388 0 0 1 .121.01.547.547 0 0 1 .214.11C.495.25.512.27.518.28.523.293.519.304.507.313a.07.07 0 0 1-.038.014A1.169 1.169 0 0 1 .363.33a.903.903 0 0 0-.146.008.113.113 0 0 0-.064.036.079.079 0 0 0-.021.05c0 .018.007.041.021.07.01.02.025.04.044.064a.78.78 0 0 0 .208.166.286.286 0 0 0 .13.043C.557.767.573.762.583.753.593.743.595.73.59.715A.083.083 0 0 0 .566.684.76.76 0 0 0 .442.588C.415.572.397.566.39.568.379.573.377.58.385.59c.007.01.024.024.05.04.03.019.054.036.07.052.016.016.019.024.008.024A.076.076 0 0 1 .487.7.62.62 0 0 1 .376.635.792.792 0 0 1 .298.57.403.403 0 0 1 .21.466C.196.438.199.419.218.408A1.283 1.283 0 0 1 .356.4.826.826 0 0 0 .5.391.132.132 0 0 0 .569.355.078.078 0 0 0 .594.3.105.105 0 0 0 .588.266.285.285 0 0 0 .502.147.562.562 0 0 0 .3.021.39.39 0 0 0 .179 0a.25.25 0 0 0-.074.01z"/></symbol><use xlink:href="#e" transform="matrix(45.4125 0 0 -45.4125 182.377 150.324)" fill="#cb750f" fill-opacity=".302"/><use xlink:href="#e" transform="matrix(45.4125 0 0 -45.4125 183.6 149.499)" fill="#cb750f" fill-opacity=".502"/><use xlink:href="#e" transform="matrix(45.4125 0 0 -45.4125 184.824 148.673)" fill="#ddb78a"/></g></svg>